<svg xmlns="http://www.w3.org/2000/svg" viewBox="0 0 1024 1024"><style>.st0{display:none;} .st1{fill:url(#SVGID_1_);} .st2{fill:url(#SVGID_2_);} .st3{fill:url(#SVGID_3_);} .st4{fill:url(#SVGID_4_);} .st5{fill:url(#SVGID_5_);} .st6{fill:url(#SVGID_6_);} .st7{fill:url(#SVGID_7_);} .st8{fill:url(#SVGID_8_);} .st9{fill:url(#SVGID_9_);} .st10{fill:url(#SVGID_10_);} .st11{fill:url(#SVGID_11_);} .st12{fill:url(#SVGID_12_);} .st13{fill:url(#SVGID_13_);} .st14{fill:url(#SVGID_14_);} .st15{fill:url(#SVGID_15_);}</style><g id="Layer_6"><linearGradient id="SVGID_1_" gradientUnits="userSpaceOnUse" x1="317.475" y1="931.047" x2="317.475" y2="931.047"><stop offset="0" stop-color="#32C0FD"/><stop offset="1" stop-color="#A831FE"/></linearGradient><linearGradient id="SVGID_2_" gradientUnits="userSpaceOnUse" x1="359.245" y1="794.841" x2="359.245" y2="794.841"><stop offset="0" stop-color="#32C0FD"/><stop offset="1" stop-color="#A831FE"/></linearGradient><linearGradient id="SVGID_3_" gradientUnits="userSpaceOnUse" x1="245.74" y1="494.281" x2="245.74" y2="494.281"><stop offset="0" stop-color="#32C0FD"/><stop offset="1" stop-color="#A831FE"/></linearGradient><linearGradient id="SVGID_4_" gradientUnits="userSpaceOnUse" x1="114.983" y1="494.281" x2="114.983" y2="494.281"><stop offset="0" stop-color="#32C0FD"/><stop offset="1" stop-color="#A831FE"/></linearGradient><linearGradient id="SVGID_5_" gradientUnits="userSpaceOnUse" x1="485.462" y1="282.708" x2="485.462" y2="282.708"><stop offset="0" stop-color="#32C0FD"/><stop offset="1" stop-color="#A831FE"/></linearGradient><linearGradient id="SVGID_6_" gradientUnits="userSpaceOnUse" x1="434.612" y1="157.399" x2="434.612" y2="157.399"><stop offset="0" stop-color="#32C0FD"/><stop offset="1" stop-color="#A831FE"/></linearGradient><linearGradient id="SVGID_7_" gradientUnits="userSpaceOnUse" x1="756.966" y1="451.603" x2="756.966" y2="451.603"><stop offset="0" stop-color="#32C0FD"/><stop offset="1" stop-color="#A831FE"/></linearGradient><linearGradient id="SVGID_8_" gradientUnits="userSpaceOnUse" x1="871.378" y1="349.903" x2="871.378" y2="349.903"><stop offset="0" stop-color="#32C0FD"/><stop offset="1" stop-color="#A831FE"/></linearGradient><linearGradient id="SVGID_9_" gradientUnits="userSpaceOnUse" x1="677.058" y1="747.623" x2="677.058" y2="747.623"><stop offset="0" stop-color="#32C0FD"/><stop offset="1" stop-color="#A831FE"/></linearGradient><linearGradient id="SVGID_10_" gradientUnits="userSpaceOnUse" x1="818.712" y1="842.059" x2="818.712" y2="842.059"><stop offset="0" stop-color="#32C0FD"/><stop offset="1" stop-color="#A831FE"/></linearGradient><linearGradient id="SVGID_11_" gradientUnits="userSpaceOnUse" x1="264.755" y1="1046.111" x2="1064.282" y2="463.151"><stop offset="0" stop-color="#32C0FD"/><stop offset="1" stop-color="#A831FE"/></linearGradient><path class="st11" d="M997.3 420.3c-30.9 24-62.2 49.1-92.4 73.3-36.6 29.4-112.2 88.6-112.2 88.6l-5.9 4.6-6.4 5.1-13.9 10.8-29.1 22.7 38 131.5 18.4 70.7-76.5-53.8-.3-.2-.1-.5-43.5-149.2-.2-.7c-3.3-11.2.1-23.8 9.5-31.9 15.1-12.8 31-25.1 46.5-37.1 4.6-3.5 9.1-7.1 13.7-10.6l12.5-9.9c37.1-28.4 74.7-58.6 111.1-87.8 30.4-24.4 61.9-49.6 93.1-73.9 13.3-10.4 32.5-8 42.9 5.4 10.5 13.4 8.1 32.6-5.2 42.9z"/><linearGradient id="SVGID_12_" gradientUnits="userSpaceOnUse" x1="-56.709" y1="605.225" x2="742.818" y2="22.264"><stop offset="0" stop-color="#32C0FD"/><stop offset="1" stop-color="#A831FE"/></linearGradient><path class="st12" d="M475.7 263.2l-51.4 149.4-.3.8c-4.1 12-15.5 20.6-28.9 20.6l-349.6-.5c-16.9 0-30.5-13.7-30.5-30.6 0-16.9 13.7-30.5 30.6-30.5h.1l327.8.4 43.5-127 27-69.4 31.7 86.8z"/><linearGradient id="SVGID_13_" gradientUnits="userSpaceOnUse" x1="9.43" y1="695.934" x2="808.957" y2="112.974"><stop offset="0" stop-color="#32C0FD"/><stop offset="1" stop-color="#A831FE"/></linearGradient><path class="st13" d="M851.5 373.3L775.6 434l-152.6.2h-.6c-12.7 0-24.5-8-28.9-20.6L479.8 83c-5.5-16 3-33.4 19-38.9s33.4 3 38.9 19L644.2 373l131.4-.1 75.9.4z"/><linearGradient id="SVGID_14_" gradientUnits="userSpaceOnUse" x1="304.584" y1="1100.737" x2="1104.112" y2="517.777"><stop offset="0" stop-color="#32C0FD"/><stop offset="1" stop-color="#A831FE"/></linearGradient><path class="st14" d="M828.8 964c-5.9 8.6-15.5 13.3-25.2 13.3-6 0-12-1.7-17.3-5.4L511.7 783.6 386.5 868 327 904.9l26.2-85.8.6-1.9.5-.4 139.5-95 .8-.5c10.1-6.9 23.8-7.3 34.5 0L821 921.5c13.8 9.6 17.4 28.6 7.8 42.5z"/><linearGradient id="SVGID_15_" gradientUnits="userSpaceOnUse" x1="87.567" y1="803.1" x2="887.095" y2="220.139"><stop offset="0" stop-color="#32C0FD"/><stop offset="1" stop-color="#A831FE"/></linearGradient><path class="st15" d="M347.8 619.9l-97.6 339.5c-3.9 13.4-16.1 22.1-29.4 22.1-2.8 0-5.6-.4-8.5-1.2-16.2-4.7-25.6-21.6-20.9-37.8l91.8-319.4-100.5-77.3-62.4-49.4 99.6 1.6 116.7 89 .3.2c9.7 7.4 14.4 20.3 10.9 32.7z"/></g></svg>